<svg width="30" height="30" viewBox="0 0 30 30" fill="none" xmlns="http://www.w3.org/2000/svg">
<path d="M26.8359 6.15234H11.0156C10.4971 6.15234 10.0781 6.57129 10.0781 7.08984V14.0039H3.16406C2.64551 14.0039 2.22656 14.4229 2.22656 14.9414V22.9102C2.22656 23.4287 2.64551 23.8477 3.16406 23.8477H18.9844C19.5029 23.8477 19.9219 23.4287 19.9219 22.9102V15.9961H26.8359C27.3545 15.9961 27.7734 15.5771 27.7734 15.0586V7.08984C27.7734 6.57129 27.3545 6.15234 26.8359 6.15234ZM12.0703 8.14453H17.9297V14.0039H12.0703V8.14453ZM10.0781 21.8555H4.21875V15.9961H10.0781V21.8555ZM17.9297 21.8555H12.0703V15.9961H17.9297V21.8555ZM25.7812 14.0039H19.9219V8.14453H25.7812V14.0039Z" fill="#F26440"/>
</svg>
