<svg width="22" height="16" viewBox="0 0 22 16" fill="none" xmlns="http://www.w3.org/2000/svg">
<path fill-rule="evenodd" clip-rule="evenodd" d="M0.00771363 7.96016C0.00771363 7.75268 0.0901321 7.55371 0.23684 7.407C0.383545 7.26029 0.582524 7.17787 0.789999 7.17787L19.241 7.17787L14.3173 2.25574C14.1704 2.10885 14.0879 1.90962 14.0879 1.70188C14.0879 1.49414 14.1704 1.29491 14.3173 1.14802C14.4642 1.00113 14.6634 0.918608 14.8711 0.918608C15.0789 0.918608 15.2781 1.00113 15.425 1.14802L21.6833 7.4063C21.7561 7.47897 21.8139 7.5653 21.8533 7.66034C21.8928 7.75537 21.9131 7.85726 21.9131 7.96016C21.9131 8.06306 21.8928 8.16494 21.8533 8.25998C21.8139 8.35502 21.7561 8.44135 21.6833 8.51402L15.425 14.7723C15.3522 14.845 15.2659 14.9027 15.1709 14.9421C15.0758 14.9814 14.974 15.0017 14.8711 15.0017C14.6634 15.0017 14.4642 14.9192 14.3173 14.7723C14.1704 14.6254 14.0879 14.4262 14.0879 14.2184C14.0879 14.0107 14.1704 13.8115 14.3173 13.6646L19.241 8.74244L0.789999 8.74244C0.582524 8.74244 0.383545 8.66002 0.23684 8.51332C0.090132 8.36661 0.00771362 8.16763 0.00771363 7.96016Z" fill="white"/>
</svg>
